<?xml version="1.0" standalone="no"?>
<!DOCTYPE svg PUBLIC "-//W3C//DTD SVG 20010904//EN"
 "http://www.w3.org/TR/2001/REC-SVG-20010904/DTD/svg10.dtd">
<svg version="1.0" xmlns="http://www.w3.org/2000/svg"
 width="56.000000pt" height="58.000000pt" viewBox="0 0 56.000000 58.000000"
 preserveAspectRatio="xMidYMid meet">

<g transform="translate(0.000000,58.000000) scale(0.100000,-0.100000)"
fill="#000000" stroke="none">
<path d="M343 503 c-7 -2 -13 -18 -13 -34 l0 -29 65 0 65 0 0 29 c0 17 -6 31
-16 35 -18 7 -83 7 -101 -1z"/>
<path d="M80 471 c-5 -11 -10 -46 -10 -79 0 -77 15 -92 97 -92 79 0 93 15 93
98 0 81 -12 92 -100 92 -58 0 -71 -3 -80 -19z m148 -73 l-3 -63 -60 0 -60 0
-3 49 c-5 72 -1 76 68 76 l61 0 -3 -62z"/>
<path d="M348 413 c-16 -4 -18 -18 -18 -119 0 -109 1 -114 19 -105 10 6 22 7
26 3 3 -4 24 -7 46 -7 l39 0 0 111 c0 107 -1 112 -22 118 -25 6 -64 6 -90 -1z"/>
<path d="M262 278 c-7 -7 -40 -10 -85 -9 -96 3 -107 -7 -107 -93 0 -35 5 -67
12 -74 7 -7 40 -12 78 -12 81 0 100 15 100 81 0 28 7 53 20 69 11 14 20 31 20
38 0 15 -22 16 -38 0z m-42 -46 c0 -5 -9 -17 -20 -27 -20 -18 -21 -18 -45 5
-20 19 -28 21 -37 12 -10 -10 -3 -22 30 -55 l43 -42 19 25 c17 22 20 23 25 7
17 -42 -29 -67 -94 -51 -35 9 -36 11 -39 58 -5 71 -1 76 63 76 30 0 55 -4 55
-8z"/>
<path d="M367 114 c-9 -9 11 -44 26 -44 15 0 38 35 30 44 -8 8 -48 8 -56 0z"/>
</g>
</svg>
