<?xml version="1.0" standalone="no"?>
<!DOCTYPE svg PUBLIC "-//W3C//DTD SVG 20010904//EN"
 "http://www.w3.org/TR/2001/REC-SVG-20010904/DTD/svg10.dtd">
<svg version="1.0" xmlns="http://www.w3.org/2000/svg"
 width="69.000000pt" height="63.000000pt" viewBox="0 0 69.000000 63.000000"
 preserveAspectRatio="xMidYMid meet">

<g transform="translate(0.000000,63.000000) scale(0.100000,-0.100000)"
fill="#000000" stroke="none">
<path d="M260 539 c-34 -14 -40 -26 -40 -91 0 -72 16 -85 117 -94 l72 -7 3
-51 3 -51 39 53 c22 30 54 60 75 70 33 16 36 21 39 66 5 76 -3 94 -46 105 -46
14 -229 13 -262 0z"/>
<path d="M132 314 c-18 -12 -22 -25 -22 -64 0 -41 4 -51 23 -61 12 -6 39 -30
59 -52 l37 -42 1 37 0 36 60 7 c74 9 90 23 90 80 0 63 -21 75 -135 75 -66 0
-97 -4 -113 -16z"/>
</g>
</svg>
