<?xml version="1.0" standalone="no"?>
<!DOCTYPE svg PUBLIC "-//W3C//DTD SVG 20010904//EN"
 "http://www.w3.org/TR/2001/REC-SVG-20010904/DTD/svg10.dtd">
<svg version="1.0" xmlns="http://www.w3.org/2000/svg"
 width="71.000000pt" height="67.000000pt" viewBox="0 0 71.000000 67.000000"
 preserveAspectRatio="xMidYMid meet">

<g transform="translate(0.000000,67.000000) scale(0.100000,-0.100000)"
fill="#000000" stroke="none">
<path d="M345 559 c-8 -13 -10 -12 42 -38 46 -23 63 -26 63 -11 0 16 -98 61
-105 49z"/>
<path d="M300 499 c-19 -10 -45 -19 -58 -19 -18 0 -22 -4 -17 -19 8 -28 10
-149 2 -201 -6 -41 -2 -36 44 58 43 85 54 100 66 90 13 -10 13 -13 1 -22 -14
-11 -98 -157 -98 -171 0 -4 22 13 49 38 26 25 73 59 104 77 l56 31 -15 34 c-8
19 -14 46 -14 59 0 20 -9 30 -40 46 -21 11 -41 20 -42 19 -2 0 -19 -9 -38 -20z"/>
<path d="M130 285 l0 -135 230 0 230 0 0 129 0 128 -46 7 c-26 3 -58 6 -71 6
-23 0 -23 -1 -8 -30 13 -26 21 -30 55 -30 l40 0 0 -93 0 -92 -197 1 -198 1 -3
92 c-3 86 -2 91 18 91 16 0 20 6 20 30 0 28 -3 30 -35 30 l-35 0 0 -135z"/>
<path d="M300 225 c-11 -13 1 -15 105 -15 89 0 116 3 113 13 -3 8 -36 13 -105
15 -80 2 -103 0 -113 -13z"/>
</g>
</svg>
